<svg width="44" height="44" viewBox="0 0 44 44" fill="none" xmlns="http://www.w3.org/2000/svg">
<path d="M6.875 35.75C6.51027 35.75 6.16064 35.6051 5.90266 35.3473C5.64485 35.0894 5.5 34.7397 5.5 34.375V9.625C5.5 9.26027 5.64485 8.91064 5.90266 8.65266C6.16064 8.39485 6.51027 8.25 6.875 8.25H15.125V35.75H6.875Z" fill="white" fill-opacity="0.2"/>
<path d="M13.75 8.25V35.75C13.75 36.5094 14.3656 37.125 15.125 37.125C15.8844 37.125 16.5 36.5094 16.5 35.75V8.25C16.5 7.49061 15.8844 6.875 15.125 6.875C14.3656 6.875 13.75 7.49061 13.75 8.25Z" fill="white"/>
<path fill-rule="evenodd" clip-rule="evenodd" d="M4.125 9.625C4.125 9.625 4.125 8.48591 4.93046 7.68046C4.93046 7.68046 5.73591 6.875 6.875 6.875H37.125C37.125 6.875 38.2641 6.875 39.0695 7.68046C39.0695 7.68046 39.875 8.48591 39.875 9.625V34.375C39.875 34.375 39.875 35.5141 39.0695 36.3195C39.0695 36.3195 38.2641 37.125 37.125 37.125H6.875C6.875 37.125 5.73591 37.125 4.93046 36.3195C4.93046 36.3195 4.125 35.5141 4.125 34.375V9.625ZM6.875 9.625V34.375H37.125V9.625H6.875Z" fill="white"/>
<path d="M5.5 15.125H9.625C10.3844 15.125 11 14.5094 11 13.75C11 12.9906 10.3844 12.375 9.625 12.375H5.5C4.74061 12.375 4.125 12.9906 4.125 13.75C4.125 14.5094 4.74061 15.125 5.5 15.125Z" fill="white"/>
<path d="M5.5 20.625H9.625C10.3844 20.625 11 20.0094 11 19.25C11 18.4906 10.3844 17.875 9.625 17.875H5.5C4.74061 17.875 4.125 18.4906 4.125 19.25C4.125 20.0094 4.74061 20.625 5.5 20.625Z" fill="white"/>
<path d="M5.5 26.125H9.625C10.3844 26.125 11 25.5094 11 24.75C11 23.9906 10.3844 23.375 9.625 23.375H5.5C4.74061 23.375 4.125 23.9906 4.125 24.75C4.125 25.5094 4.74061 26.125 5.5 26.125Z" fill="white"/>
</svg>
